<mxfile host="65bd71144e">
    <diagram id="LnztlkZ6TviXsokRoF0o" name="Página-1">
        <mxGraphModel dx="1002" dy="563" grid="1" gridSize="10" guides="1" tooltips="1" connect="1" arrows="1" fold="1" page="1" pageScale="1" pageWidth="827" pageHeight="1169" math="0" shadow="0">
            <root>
                <mxCell id="0"/>
                <mxCell id="1" parent="0"/>
                <mxCell id="18" style="edgeStyle=none;html=1;exitX=1;exitY=0.3333333333333333;exitDx=0;exitDy=0;exitPerimeter=0;entryX=0;entryY=0.5;entryDx=0;entryDy=0;" edge="1" parent="1" source="2" target="9">
                    <mxGeometry relative="1" as="geometry"/>
                </mxCell>
                <mxCell id="19" style="edgeStyle=none;html=1;exitX=1;exitY=0.3333333333333333;exitDx=0;exitDy=0;exitPerimeter=0;entryX=0;entryY=0.5;entryDx=0;entryDy=0;" edge="1" parent="1" source="2" target="10">
                    <mxGeometry relative="1" as="geometry"/>
                </mxCell>
                <mxCell id="20" style="edgeStyle=none;html=1;exitX=1;exitY=0.3333333333333333;exitDx=0;exitDy=0;exitPerimeter=0;entryX=0;entryY=0.5;entryDx=0;entryDy=0;" edge="1" parent="1" source="2" target="11">
                    <mxGeometry relative="1" as="geometry"/>
                </mxCell>
                <mxCell id="21" style="edgeStyle=none;html=1;exitX=1;exitY=0.3333333333333333;exitDx=0;exitDy=0;exitPerimeter=0;entryX=0;entryY=0.5;entryDx=0;entryDy=0;" edge="1" parent="1" source="2" target="13">
                    <mxGeometry relative="1" as="geometry"/>
                </mxCell>
                <mxCell id="22" style="edgeStyle=none;html=1;exitX=1;exitY=0.3333333333333333;exitDx=0;exitDy=0;exitPerimeter=0;entryX=0;entryY=0.5;entryDx=0;entryDy=0;" edge="1" parent="1" source="2" target="8">
                    <mxGeometry relative="1" as="geometry"/>
                </mxCell>
                <mxCell id="38" style="edgeStyle=none;html=1;exitX=1;exitY=0.3333333333333333;exitDx=0;exitDy=0;exitPerimeter=0;entryX=0;entryY=0.5;entryDx=0;entryDy=0;" edge="1" parent="1" source="2" target="37">
                    <mxGeometry relative="1" as="geometry"/>
                </mxCell>
                <mxCell id="2" value="Usuario" style="shape=umlActor;verticalLabelPosition=bottom;verticalAlign=top;html=1;" vertex="1" parent="1">
                    <mxGeometry x="20" y="310" width="30" height="60" as="geometry"/>
                </mxCell>
                <mxCell id="25" style="edgeStyle=none;html=1;exitX=1;exitY=0.3333333333333333;exitDx=0;exitDy=0;exitPerimeter=0;entryX=0;entryY=0.5;entryDx=0;entryDy=0;" edge="1" parent="1" source="3" target="10">
                    <mxGeometry relative="1" as="geometry"/>
                </mxCell>
                <mxCell id="26" style="edgeStyle=none;html=1;exitX=1;exitY=0.3333333333333333;exitDx=0;exitDy=0;exitPerimeter=0;entryX=0;entryY=0.5;entryDx=0;entryDy=0;" edge="1" parent="1" source="3" target="8">
                    <mxGeometry relative="1" as="geometry"/>
                </mxCell>
                <mxCell id="27" style="edgeStyle=none;html=1;exitX=1;exitY=0.3333333333333333;exitDx=0;exitDy=0;exitPerimeter=0;entryX=0;entryY=0.5;entryDx=0;entryDy=0;" edge="1" parent="1" source="3" target="17">
                    <mxGeometry relative="1" as="geometry"/>
                </mxCell>
                <mxCell id="3" value="Admin" style="shape=umlActor;verticalLabelPosition=bottom;verticalAlign=top;html=1;" vertex="1" parent="1">
                    <mxGeometry x="20" y="740" width="30" height="60" as="geometry"/>
                </mxCell>
                <mxCell id="5" value="Reproductor de Música" style="shape=umlFrame;whiteSpace=wrap;html=1;pointerEvents=0;recursiveResize=0;container=1;collapsible=0;width=160;" vertex="1" parent="1">
                    <mxGeometry x="100" y="200" width="630" height="830" as="geometry"/>
                </mxCell>
                <mxCell id="6" value="Registrarse" style="ellipse;whiteSpace=wrap;html=1;" vertex="1" parent="5">
                    <mxGeometry x="320" y="510" width="140" height="70" as="geometry"/>
                </mxCell>
                <mxCell id="7" value="Iniciar Sesión&amp;nbsp;" style="ellipse;whiteSpace=wrap;html=1;" vertex="1" parent="5">
                    <mxGeometry x="320" y="315" width="140" height="70" as="geometry"/>
                </mxCell>
                <mxCell id="8" value="Reproducir Música" style="ellipse;whiteSpace=wrap;html=1;" vertex="1" parent="5">
                    <mxGeometry x="70" y="550" width="140" height="70" as="geometry"/>
                </mxCell>
                <mxCell id="9" value="Crear Playlist" style="ellipse;whiteSpace=wrap;html=1;" vertex="1" parent="5">
                    <mxGeometry x="70" y="40" width="140" height="70" as="geometry"/>
                </mxCell>
                <mxCell id="10" value="Buscar Canciones" style="ellipse;whiteSpace=wrap;html=1;" vertex="1" parent="5">
                    <mxGeometry x="70" y="160" width="140" height="70" as="geometry"/>
                </mxCell>
                <mxCell id="11" value="Gestionar Perfil" style="ellipse;whiteSpace=wrap;html=1;" vertex="1" parent="5">
                    <mxGeometry x="70" y="270" width="140" height="70" as="geometry"/>
                </mxCell>
                <mxCell id="13" value="Gestionar Biblioteca Personal" style="ellipse;whiteSpace=wrap;html=1;" vertex="1" parent="5">
                    <mxGeometry x="70" y="385" width="140" height="70" as="geometry"/>
                </mxCell>
                <mxCell id="16" value="Sugerir Canciones" style="ellipse;whiteSpace=wrap;html=1;" vertex="1" parent="5">
                    <mxGeometry x="420" y="190" width="140" height="70" as="geometry"/>
                </mxCell>
                <mxCell id="17" value="Gestionar Contenido" style="ellipse;whiteSpace=wrap;html=1;" vertex="1" parent="5">
                    <mxGeometry x="70" y="650" width="140" height="70" as="geometry"/>
                </mxCell>
                <mxCell id="28" value="&amp;lt;&amp;lt;include&amp;gt;&amp;gt;" style="html=1;verticalAlign=bottom;labelBackgroundColor=none;endArrow=open;endFill=0;dashed=1;entryX=0;entryY=0.5;entryDx=0;entryDy=0;" edge="1" parent="5" target="7">
                    <mxGeometry width="160" relative="1" as="geometry">
                        <mxPoint x="210" y="80" as="sourcePoint"/>
                        <mxPoint x="370" y="80" as="targetPoint"/>
                    </mxGeometry>
                </mxCell>
                <mxCell id="31" value="&amp;lt;&amp;lt;include&amp;gt;&amp;gt;" style="html=1;verticalAlign=bottom;labelBackgroundColor=none;endArrow=open;endFill=0;dashed=1;exitX=1;exitY=0.5;exitDx=0;exitDy=0;" edge="1" parent="5" source="13">
                    <mxGeometry width="160" relative="1" as="geometry">
                        <mxPoint x="220" y="420" as="sourcePoint"/>
                        <mxPoint x="310" y="350" as="targetPoint"/>
                    </mxGeometry>
                </mxCell>
                <mxCell id="32" value="&amp;lt;&amp;lt;include&amp;gt;&amp;gt;" style="html=1;verticalAlign=bottom;labelBackgroundColor=none;endArrow=open;endFill=0;dashed=1;exitX=0.934;exitY=0.246;exitDx=0;exitDy=0;exitPerimeter=0;" edge="1" parent="5" source="8" target="7">
                    <mxGeometry width="160" relative="1" as="geometry">
                        <mxPoint x="210" y="510" as="sourcePoint"/>
                        <mxPoint x="370" y="510" as="targetPoint"/>
                    </mxGeometry>
                </mxCell>
                <mxCell id="33" value="&amp;lt;&amp;lt;include&amp;gt;&amp;gt;" style="html=1;verticalAlign=bottom;labelBackgroundColor=none;endArrow=open;endFill=0;dashed=1;exitX=1;exitY=0;exitDx=0;exitDy=0;" edge="1" parent="5" source="17">
                    <mxGeometry width="160" relative="1" as="geometry">
                        <mxPoint x="340" y="440" as="sourcePoint"/>
                        <mxPoint x="350" y="380" as="targetPoint"/>
                    </mxGeometry>
                </mxCell>
                <mxCell id="34" value="&amp;lt;&amp;lt;include&amp;gt;&amp;gt;" style="html=1;verticalAlign=bottom;labelBackgroundColor=none;endArrow=open;endFill=0;dashed=1;entryX=0.5;entryY=0;entryDx=0;entryDy=0;exitX=0.5;exitY=1;exitDx=0;exitDy=0;" edge="1" parent="5" source="7" target="6">
                    <mxGeometry width="160" relative="1" as="geometry">
                        <mxPoint x="390" y="430" as="sourcePoint"/>
                        <mxPoint x="550" y="430" as="targetPoint"/>
                    </mxGeometry>
                </mxCell>
                <mxCell id="36" value="&amp;lt;&amp;lt;extend&amp;gt;&amp;gt;" style="html=1;verticalAlign=bottom;labelBackgroundColor=none;endArrow=open;endFill=0;dashed=1;entryX=1;entryY=0.5;entryDx=0;entryDy=0;exitX=0;exitY=0.5;exitDx=0;exitDy=0;" edge="1" parent="5" source="16" target="10">
                    <mxGeometry width="160" relative="1" as="geometry">
                        <mxPoint x="310" y="150" as="sourcePoint"/>
                        <mxPoint x="470" y="150" as="targetPoint"/>
                    </mxGeometry>
                </mxCell>
                <mxCell id="37" value="Subir contenido" style="ellipse;whiteSpace=wrap;html=1;" vertex="1" parent="5">
                    <mxGeometry x="70" y="470" width="140" height="70" as="geometry"/>
                </mxCell>
                <mxCell id="39" value="&amp;lt;&amp;lt;include&amp;gt;&amp;gt;" style="html=1;verticalAlign=bottom;labelBackgroundColor=none;endArrow=open;endFill=0;dashed=1;exitX=1;exitY=0.5;exitDx=0;exitDy=0;" edge="1" parent="5" source="37" target="7">
                    <mxGeometry width="160" relative="1" as="geometry">
                        <mxPoint x="200" y="460" as="sourcePoint"/>
                        <mxPoint x="360" y="460" as="targetPoint"/>
                    </mxGeometry>
                </mxCell>
                <mxCell id="35" style="edgeStyle=none;html=1;exitX=0;exitY=0.3333333333333333;exitDx=0;exitDy=0;exitPerimeter=0;entryX=1;entryY=0.5;entryDx=0;entryDy=0;" edge="1" parent="1" source="15" target="16">
                    <mxGeometry relative="1" as="geometry"/>
                </mxCell>
                <mxCell id="15" value="Sistema" style="shape=umlActor;verticalLabelPosition=bottom;verticalAlign=top;html=1;" vertex="1" parent="1">
                    <mxGeometry x="750" y="410" width="30" height="60" as="geometry"/>
                </mxCell>
                <mxCell id="29" value="&amp;lt;&amp;lt;include&amp;gt;&amp;gt;" style="html=1;verticalAlign=bottom;labelBackgroundColor=none;endArrow=open;endFill=0;dashed=1;exitX=1;exitY=0.5;exitDx=0;exitDy=0;" edge="1" parent="1" source="10">
                    <mxGeometry width="160" relative="1" as="geometry">
                        <mxPoint x="320" y="290" as="sourcePoint"/>
                        <mxPoint x="420" y="550" as="targetPoint"/>
                    </mxGeometry>
                </mxCell>
                <mxCell id="30" value="&amp;lt;&amp;lt;include&amp;gt;&amp;gt;" style="html=1;verticalAlign=bottom;labelBackgroundColor=none;endArrow=open;endFill=0;dashed=1;exitX=1;exitY=0.5;exitDx=0;exitDy=0;" edge="1" parent="1" source="11">
                    <mxGeometry width="160" relative="1" as="geometry">
                        <mxPoint x="320" y="405" as="sourcePoint"/>
                        <mxPoint x="420" y="550" as="targetPoint"/>
                    </mxGeometry>
                </mxCell>
            </root>
        </mxGraphModel>
    </diagram>
</mxfile>